<?xml version="1.0" encoding="utf-8"?>
<!-- Generator: Adobe Illustrator 23.0.6, SVG Export Plug-In . SVG Version: 6.00 Build 0)  -->
<svg version="1.1" id="레이어_1" xmlns="http://www.w3.org/2000/svg" xmlns:xlink="http://www.w3.org/1999/xlink" x="0px"
	 y="0px" viewBox="0 0 100 100" style="enable-background:new 0 0 100 100;" xml:space="preserve">
<style type="text/css">
	.st0{fill:none;stroke:#FFFFFF;stroke-width:1.5;stroke-miterlimit:10;}
</style>
<g>
	<path class="st0" d="M92.44,78.27c0,0-14.89,0.99-21.62,2.43c-6.73,1.44-33.63,6.73-39.87,2.64"/>
	<path class="st0" d="M78.79,79.5c0,0-1.36-15.01-4.25-20.3c-2.88-5.28-4.2-7.57-4.8-10.93c-0.6-3.36-4.56-4.44-4.68-8.65
		s2.76-12.95-1.56-16.91l0,0c3.42-0.82,6.53-1.52,6.61-8.19c0,0-0.96-2.28,3-0.6c3.96,1.68,14.65,3.72,11.17,0.24
		c0,0-25.1-16.21-31.59-7.57s-9.23,14.05-12.12,18.14c-2.89,4.08-5.05,8.89-4.69,15.25s-2.4,11.41-6.01,16.93s-0.72,13.21-3,18.5
		S16.05,71.94,8.13,79.5s-5.16,7.21,4.08,10.33S24.7,96.92,45,95.72s32.79-10.93,39.27-14.77c6.49-3.84,14.29-3.6,11.77,0.96
		c-2.52,4.56-6.49,7.81-21.99,5.25"/>
</g>
</svg>
